HIERARCHY
ROOT hip
{
  OFFSET 0 0 0
  CHANNELS 6 Xposition Yposition Zposition Zrotation Yrotation Xrotation
  JOINT abdomen
  {
    OFFSET 0 20.6881 -0.73152
    CHANNELS 3 Zrotation Xrotation Yrotation
    JOINT chest
    {
      OFFSET 0 11.7043 -0.48768
      CHANNELS 3 Zrotation Xrotation Yrotation
      JOINT neck
      {
        OFFSET 0 22.1894 -2.19456
        CHANNELS 3 Zrotation Xrotation Yrotation
        JOINT head
        {
          OFFSET -0.24384 7.07133 1.2192
          CHANNELS 3 Zrotation Xrotation Yrotation
          JOINT leftEye
          {
            OFFSET 4.14528 8.04674 8.04672
            CHANNELS 3 Zrotation Xrotation Yrotation
            End Site
            {
              OFFSET 1 0 0
            }
          }
          JOINT rightEye
          {
            OFFSET -3.6576 8.04674 8.04672
            CHANNELS 3 Zrotation Xrotation Yrotation
            End Site
            {
              OFFSET 1 0 0
            }
          }
        }
      }
      JOINT rCollar
      {
        OFFSET -2.68224 19.2634 -4.8768
        CHANNELS 3 Zrotation Xrotation Yrotation
        JOINT rShldr
        {
          OFFSET -8.77824 -1.95073 1.46304
          CHANNELS 3 Zrotation Xrotation Yrotation
          JOINT rForeArm
          {
            OFFSET -28.1742 -1.7115 0.48768
            CHANNELS 3 Zrotation Xrotation Yrotation
            JOINT rHand
            {
              OFFSET -22.5879 0.773209 7.07136
              CHANNELS 3 Zrotation Xrotation Yrotation
              JOINT rThumb1
              {
                OFFSET -1.2192 -0.487915 3.41376
                CHANNELS 3 Zrotation Xrotation Yrotation
                JOINT rThumb2
                {
                  OFFSET -3.37035 -0.52449 3.41376
                  CHANNELS 3 Zrotation Xrotation Yrotation
                  End Site
                  {
                    OFFSET -1.78271 -1.18214 1.43049
                  }
                }
              }
              JOINT rIndex1
              {
                OFFSET -7.75947 0.938293 5.60832
                CHANNELS 3 Zrotation Xrotation Yrotation
                JOINT rIndex2
                {
                  OFFSET -2.54057 -0.884171 1.56538
                  CHANNELS 3 Zrotation Xrotation Yrotation
                  End Site
                  {
                    OFFSET -1.62519 -0.234802 1.16502
                  }
                }
              }
              JOINT rMid1
              {
                OFFSET -8.24714 1.18213 3.41376
                CHANNELS 3 Zrotation Xrotation Yrotation
                JOINT rMid2
                {
                  OFFSET -3.10165 -0.590103 1.0647
                  CHANNELS 3 Zrotation Xrotation Yrotation
                  End Site
                  {
                    OFFSET -2.48547 -0.328903 0.83742
                  }
                }
              }
              JOINT rRing1
              {
                OFFSET -8.82822 0.546677 1.51678
                CHANNELS 3 Zrotation Xrotation Yrotation
                JOINT rRing2
                {
                  OFFSET -2.60934 -0.819778 -0.0198488
                  CHANNELS 3 Zrotation Xrotation Yrotation
                  End Site
                  {
                    OFFSET -2.33842 -0.294052 0.168128
                  }
                }
              }
              JOINT rPinky1
              {
                OFFSET -8.27202 -0.0477905 -0.4584
                CHANNELS 3 Zrotation Xrotation Yrotation
                JOINT rPinky2
                {
                  OFFSET -1.82734 -0.647385 -0.700984
                  CHANNELS 3 Zrotation Xrotation Yrotation
                  End Site
                  {
                    OFFSET -1.69225 -0.51767 -0.607171
                  }
                }
              }
            }
          }
        }
      }
      JOINT lCollar
      {
        OFFSET 2.68224 19.2634 -4.8768
        CHANNELS 3 Zrotation Xrotation Yrotation
        JOINT lShldr
        {
          OFFSET 8.77824 -1.95073 1.46304
          CHANNELS 3 Zrotation Xrotation Yrotation
          JOINT lForeArm
          {
            OFFSET 28.1742 -1.7115 0.48768
            CHANNELS 3 Zrotation Xrotation Yrotation
            JOINT lHand
            {
              OFFSET 22.5879 0.773209 7.07136
              CHANNELS 3 Zrotation Xrotation Yrotation
              JOINT lThumb1
              {
                OFFSET 1.2192 -0.487915 3.41376
                CHANNELS 3 Zrotation Xrotation Yrotation
                JOINT lThumb2
                {
                  OFFSET 3.37035 -0.52449 3.41376
                  CHANNELS 3 Zrotation Xrotation Yrotation
                  End Site
                  {
                    OFFSET 1.78271 -1.18214 1.43049
                  }
                }
              }
              JOINT lIndex1
              {
                OFFSET 7.75947 0.938293 5.60832
                CHANNELS 3 Zrotation Xrotation Yrotation
                JOINT lIndex2
                {
                  OFFSET 2.54057 -0.884171 1.56538
                  CHANNELS 3 Zrotation Xrotation Yrotation
                  End Site
                  {
                    OFFSET 1.62519 -0.234802 1.16502
                  }
                }
              }
              JOINT lMid1
              {
                OFFSET 8.24714 1.18213 3.41376
                CHANNELS 3 Zrotation Xrotation Yrotation
                JOINT lMid2
                {
                  OFFSET 3.10165 -0.590103 1.0647
                  CHANNELS 3 Zrotation Xrotation Yrotation
                  End Site
                  {
                    OFFSET 2.48547 -0.328903 0.83742
                  }
                }
              }
              JOINT lRing1
              {
                OFFSET 8.82822 0.546677 1.51678
                CHANNELS 3 Zrotation Xrotation Yrotation
                JOINT lRing2
                {
                  OFFSET 2.60934 -0.819778 -0.0198488
                  CHANNELS 3 Zrotation Xrotation Yrotation
                  End Site
                  {
                    OFFSET 2.33842 -0.294052 0.168128
                  }
                }
              }
              JOINT lPinky1
              {
                OFFSET 8.27202 -0.0477905 -0.4584
                CHANNELS 3 Zrotation Xrotation Yrotation
                JOINT lPinky2
                {
                  OFFSET 1.82734 -0.647385 -0.700984
                  CHANNELS 3 Zrotation Xrotation Yrotation
                  End Site
                  {
                    OFFSET 1.69225 -0.51767 -0.607171
                  }
                }
              }
            }
          }
        }
      }
    }
  }
  JOINT rButtock
  {
    OFFSET -8.77824 4.35084 1.2192
    CHANNELS 3 Zrotation Xrotation Yrotation
    JOINT rThigh
    {
      OFFSET 0 -1.70687 -2.19456
      CHANNELS 3 Zrotation Xrotation Yrotation
      JOINT rShin
      {
        OFFSET 0 -36.8199 0.73152
        CHANNELS 3 Zrotation Xrotation Yrotation
        JOINT rFoot
        {
          OFFSET 0.73152 -45.1104 -5.12064
          CHANNELS 3 Zrotation Xrotation Yrotation
          End Site
          {
            OFFSET -1.1221 -3.69964 12.103
          }
        }
      }
    }
  }
  JOINT lButtock
  {
    OFFSET 8.77824 4.35084 1.2192
    CHANNELS 3 Zrotation Xrotation Yrotation
    JOINT lThigh
    {
      OFFSET 0 -1.70687 -2.19456
      CHANNELS 3 Zrotation Xrotation Yrotation
      JOINT lShin
      {
        OFFSET 0 -36.8199 0.73152
        CHANNELS 3 Zrotation Xrotation Yrotation
        JOINT lFoot
        {
          OFFSET -0.73152 -45.1104 -5.12064
          CHANNELS 3 Zrotation Xrotation Yrotation
          End Site
          {
            OFFSET 1.1221 -3.69964 12.103
          }
        }
      }
    }
  }
}
MOTION
Frames:	9
Frame Time:	0.00833333
52.1866 85.3166 95.3839 0.0 0.0 0.0 1.08606 -0.00408995 0.0298992 0.299446 -0.00345837 0.0518743 6.30509e-15 -1.59028e-15 4.09993e-16 1.86174e-14 3.18055e-15 1.32627e-15 -0.0 0.0 0.0 -0.0 0.0 0.0 3.17921e-15 -2.05773e-17 3.97569e-16 6.55983e-14 -4.96962e-16 5.76476e-15 1.09033e-12 -3.44096e-13 6.04305e-14 1.24695e-11 2.48704e-13 9.41444e-13 2.94127e-11 -2.06365e-13 2.19458e-12 5.08002e-11 -3.59403e-13 3.7952e-12 2.94185e-11 -2.04748e-13 2.18822e-12 7.73091 5.47488 0.417314 2.94126e-11 -2.05941e-13 2.19776e-12 2.90554 0.965183 0.102902 2.9424e-11 -2.05543e-13 2.19697e-12 10.2786 0.731801 0.0259123 2.94084e-11 -2.05543e-13 2.2073e-12 2.22167 -0.733487 -0.20892 3.0827e-15 -1.94126e-17 0.0 6.20608e-14 -4.03781e-16 4.37326e-15 1.08487e-12 3.14676e-13 9.54166e-14 1.24633e-11 -4.01048e-13 9.25541e-13 2.93957e-11 -1.85558e-13 2.2073e-12 5.07712e-11 -3.14875e-13 3.80474e-12 2.93895e-11 -1.83677e-13 2.21367e-12 -7.73091 5.47488 -0.417314 2.93938e-11 -1.8477e-13 2.20094e-12 -2.90554 0.965183 -0.102902 2.93857e-11 -1.8477e-13 2.20174e-12 -10.2786 0.731801 -0.0259123 2.93999e-11 -1.84075e-13 2.1914e-12 -2.22167 -0.733487 0.20892 -2.03217e-16 0.0 -3.88251e-19 1.33868 -5.65666 -0.117791 0.000448798 4.68993 0.0313069 -0.524624 0.96492 0.0795477 2.03217e-16 0.0 3.88251e-19 0.313473 -1.92005 0.0118644 0.00934831 -2.07854 0.077256 0.509864 3.99665 -0.139959
53.8703 83.9662 84.6011 -174.26 6.9835 -176.849 2.09665 0.56498 2.26839 0.200258 -0.188933 0.687127 -2.91323 -0.882045 -0.538027 0.756095 0.70355 -0.452283 -0.0 0.0 0.0 -0.0 0.0 0.0 -1.69342e-14 7.32452e-15 -9.34952e-14 20.1973 4.2575 2.64104 -5.9936 -3.20316 8.78212 0.0781231 -6.20958 -0.854328 3.86256e-10 -8.69039e-10 -3.45554e-10 6.72614e-10 -1.50953e-09 -5.91545e-10 3.86259e-10 -8.69038e-10 -3.45566e-10 7.73091 5.47488 0.417314 3.86256e-10 -8.69039e-10 -3.45554e-10 2.90554 0.965183 0.102902 3.86267e-10 -8.69039e-10 -3.45554e-10 10.2786 0.731801 0.0259123 3.86252e-10 -8.69038e-10 -3.45546e-10 2.22167 -0.733487 -0.20892 -1.70168e-14 7.3252e-15 -9.37941e-14 -22.3292 4.4831 1.24555 4.31697 -1.98117 -6.72123 -0.0148172 2.70065 -0.37803 4.42902e-10 7.6411e-10 -5.73966e-13 7.64961e-10 1.32091e-09 -5.37718e-12 4.42897e-10 7.64112e-10 -5.6681e-13 -7.73091 5.47488 -0.417314 4.42901e-10 7.64111e-10 -5.78364e-13 -2.90554 0.965183 -0.102902 4.42894e-10 7.64111e-10 -5.7801e-13 -10.2786 0.731801 -0.0259123 4.42907e-10 7.64112e-10 -5.88204e-13 -2.22167 -0.733487 0.20892 -2.03217e-16 0.0 -3.88251e-19 1.96861 -3.91954 -0.481618 0.0268646 13.6154 0.212751 -0.487808 1.02328 0.99653 2.03217e-16 0.0 3.88251e-19 1.68347 -9.90408 0.475396 0.0162457 5.91726 -0.0153452 0.504971 4.36211 -0.0059799
53.5971 83.9312 83.7427 -175.12 7.0017 -177.004 3.11433 1.14684 4.63972 0.111957 -0.37719 1.36012 -6.01319 -1.82446 -1.10823 1.56429 1.43885 -0.927589 -0.0 0.0 0.0 -0.0 0.0 0.0 -4.05957e-14 1.45271e-14 -1.94663e-13 41.1053 8.72351 5.48235 -11.2606 -6.32584 18.1336 -0.0451594 -12.7474 -1.78844 7.91327e-10 -1.8384e-09 -7.24833e-10 1.3782e-09 -3.19281e-09 -1.24058e-09 7.91327e-10 -1.8384e-09 -7.24851e-10 7.73091 5.47488 0.417314 7.91327e-10 -1.8384e-09 -7.24836e-10 2.90554 0.965183 0.102902 7.91337e-10 -1.8384e-09 -7.24836e-10 10.2786 0.731801 0.0259123 7.91324e-10 -1.8384e-09 -7.24829e-10 2.22167 -0.733487 -0.20892 -4.06634e-14 1.45272e-14 -1.94856e-13 -46.1602 9.2208 2.58835 8.38086 -3.98604 -13.8551 0.00843349 5.55499 -0.780429 8.99034e-10 1.58947e-09 -9.94123e-13 1.55276e-09 2.74766e-09 -1.09246e-11 8.9903e-10 1.58947e-09 -9.8617e-13 -7.73091 5.47488 -0.417314 8.99034e-10 1.58947e-09 -9.96309e-13 -2.90554 0.965183 -0.102902 8.99028e-10 1.58947e-09 -9.96558e-13 -10.2786 0.731801 -0.0259123 8.9904e-10 1.58947e-09 -1.00665e-12 -2.22167 -0.733487 0.20892 -2.03217e-16 0.0 -3.88251e-19 2.67709 -2.01486 -0.843514 -0.0105029 22.9126 0.425653 -0.446023 0.912567 1.96971 2.03217e-16 0.0 3.88251e-19 3.28947 -18.373 1.00726 0.0518289 14.3435 -0.11715 0.498176 4.77927 0.138527
53.3761 84.103 82.9016 -175.723 6.8723 -177.117 3.98472 1.69265 6.74799 0.0142198 -0.559597 1.95772 -8.78943 -2.6452 -1.61561 2.30162 2.11012 -1.35767 -0.0 0.0 0.0 -0.0 0.0 0.0 -5.71611e-14 2.20147e-14 -2.81281e-13 59.3938 12.6626 8.09952 -15.1222 -8.70809 26.6356 -0.34704 -18.6117 -2.68865 1.09994e-09 -2.6067e-09 -1.04105e-09 1.91624e-09 -4.52787e-09 -1.78223e-09 1.09994e-09 -2.6067e-09 -1.04107e-09 7.73091 5.47488 0.417314 1.09994e-09 -2.60671e-09 -1.04106e-09 2.90554 0.965183 0.102902 1.09995e-09 -2.60671e-09 -1.04106e-09 10.2786 0.731801 0.0259123 1.09994e-09 -2.6067e-09 -1.04105e-09 2.22167 -0.733487 -0.20892 -5.72157e-14 2.20144e-14 -2.81382e-13 -67.5859 13.4235 3.83 11.5828 -5.61704 -20.2531 0.0633693 8.10054 -1.14425 1.26991e-09 2.2927e-09 -6.13651e-12 2.19334e-09 3.96335e-09 -2.3741e-11 1.26991e-09 2.2927e-09 -6.12776e-12 -7.73091 5.47488 -0.417314 1.26992e-09 2.2927e-09 -6.13698e-12 -2.90554 0.965183 -0.102902 1.26991e-09 2.2927e-09 -6.13751e-12 -10.2786 0.731801 -0.0259123 1.26992e-09 2.2927e-09 -6.14742e-12 -2.22167 -0.733487 0.20892 -2.03217e-16 0.0 -3.88251e-19 3.29463 -0.445596 -1.20708 -0.116607 31.4648 0.654094 -0.419776 1.13906 2.8306 2.03217e-16 0.0 3.88251e-19 4.84875 -25.8651 1.53502 0.111414 21.9087 -0.215785 0.490036 5.09295 0.262386
53.2929 83.8929 82.0545 -175.448 6.5172 -177.392 4.57479 2.15769 8.19644 -0.115039 -0.727624 2.36674 -10.7202 -3.16264 -1.96439 2.83925 2.62178 -1.67396 -0.0 0.0 0.0 -0.0 0.0 0.0 -5.59866e-14 3.02153e-14 -3.31523e-13 71.9849 15.3889 9.98917 -17.4252 -10.0818 32.7432 -0.683608 -22.8078 -3.38818 1.16742e-09 -2.87237e-09 -1.19962e-09 2.03543e-09 -4.99234e-09 -2.05541e-09 1.16741e-09 -2.87237e-09 -1.19965e-09 7.73091 5.47488 0.417314 1.16742e-09 -2.87237e-09 -1.19963e-09 2.90554 0.965183 0.102902 1.16743e-09 -2.87237e-09 -1.19963e-09 10.2786 0.731801 0.0259123 1.16742e-09 -2.87237e-09 -1.19962e-09 2.22167 -0.733487 -0.20892 -5.60323e-14 3.02145e-14 -3.31573e-13 -82.5694 16.3134 4.72937 13.5864 -6.62551 -24.7256 0.121126 9.87546 -1.40195 1.42766e-09 2.69062e-09 -2.30845e-11 2.4659e-09 4.65137e-09 -5.47302e-11 1.42766e-09 2.69062e-09 -2.30749e-11 -7.73091 5.47488 -0.417314 1.42767e-09 2.69062e-09 -2.30845e-11 -2.90554 0.965183 -0.102902 1.42766e-09 2.69062e-09 -2.30845e-11 -10.2786 0.731801 -0.0259123 1.42767e-09 2.69062e-09 -2.3094e-11 -2.22167 -0.733487 0.20892 -2.03217e-16 0.0 -3.88251e-19 3.63926 0.285537 -1.57497 -0.257693 38.1558 0.858591 -0.45437 2.20805 3.41187 2.03217e-16 0.0 3.88251e-19 5.96706 -30.9222 1.92439 0.172187 27.3215 -0.290479 0.482971 5.14802 0.334247
53.1489 83.8817 81.1586 -175.236 6.1376 -177.757 4.91348 2.52209 8.7086 -0.329457 -0.895436 2.50937 -11.4384 -3.22677 -2.09105 3.08857 2.89687 -1.84264 -0.0 0.0 0.0 -0.0 0.0 0.0 -2.13405e-14 4.36256e-14 -3.37097e-13 77.0311 16.4758 10.6997 -18.3282 -10.6241 35.3706 -0.866391 -24.7216 -3.7252 8.32724e-10 -2.34276e-09 -1.13537e-09 1.45676e-09 -4.08094e-09 -1.95023e-09 8.3272e-10 -2.34274e-09 -1.1354e-09 7.73091 5.47488 0.417314 8.32724e-10 -2.34275e-09 -1.13538e-09 2.90554 0.965183 0.102902 8.3273e-10 -2.34275e-09 -1.13538e-09 10.2786 0.731801 0.0259123 8.32721e-10 -2.34276e-09 -1.13537e-09 2.22167 -0.733487 -0.20892 -2.13829e-14 4.36243e-14 -3.37155e-13 -88.3313 17.3566 5.10593 14.2985 -6.96736 -26.4288 0.148678 10.5879 -1.50651 1.26964e-09 2.71395e-09 -6.91132e-11 2.19326e-09 4.69221e-09 -1.32687e-10 1.26964e-09 2.71395e-09 -6.91026e-11 -7.73091 5.47488 -0.417314 1.26965e-09 2.71395e-09 -6.91149e-11 -2.90554 0.965183 -0.102902 1.26964e-09 2.71395e-09 -6.91128e-11 -10.2786 0.731801 -0.0259123 1.26965e-09 2.71396e-09 -6.91216e-11 -2.22167 -0.733487 0.20892 -2.03217e-16 0.0 -3.88251e-19 3.64666 -0.138125 -1.97203 -0.366263 42.2447 0.978316 -0.582629 4.55846 3.67104 2.03217e-16 0.0 3.88251e-19 6.37491 -32.6159 2.02176 0.204964 29.7934 -0.318165 0.478716 4.82583 0.310762
53.0958 83.9548 80.3197 -174.855 6.0305 -177.936 5.08106 2.81683 8.55194 -0.604361 -1.06223 2.46183 -11.288 -2.96865 -2.0588 3.1292 3.00374 -1.90513 -0.0 0.0 0.0 -0.0 0.0 0.0 3.68024e-14 6.05567e-14 -3.10467e-13 76.7817 16.4147 10.5349 -18.4017 -10.7473 35.4817 -0.882223 -25.0073 -3.77288 2.13839e-10 -1.24945e-09 -9.12072e-10 3.84935e-10 -2.19425e-09 -1.57492e-09 2.13837e-10 -1.24942e-09 -9.12097e-10 7.73091 5.47488 0.417314 2.13839e-10 -1.24942e-09 -9.12075e-10 2.90554 0.965183 0.102902 2.13842e-10 -1.24942e-09 -9.12073e-10 10.2786 0.731801 0.0259123 2.13836e-10 -1.24945e-09 -9.12064e-10 2.22167 -0.733487 -0.20892 3.67596e-14 6.05547e-14 -3.10576e-13 -87.4582 17.0871 5.08921 14.174 -6.89359 -26.1432 0.146414 10.5409 -1.49955 8.86904e-10 2.46721e-09 -1.35316e-10 1.53263e-09 4.2664e-09 -2.43168e-10 8.869e-10 2.46721e-09 -1.35304e-10 -7.73091 5.47488 -0.417314 8.86908e-10 2.46721e-09 -1.35321e-10 -2.90554 0.965183 -0.102902 8.869e-10 2.46721e-09 -1.35316e-10 -10.2786 0.731801 -0.0259123 8.86912e-10 2.46721e-09 -1.35324e-10 -2.22167 -0.733487 0.20892 -2.03217e-16 0.0 -3.88251e-19 3.39063 -1.38685 -2.38949 -0.422246 44.4752 1.01555 -0.769382 7.81992 3.70575 2.03217e-16 0.0 3.88251e-19 6.23275 -31.9064 1.88425 0.209295 30.1612 -0.307267 0.475059 4.23488 0.220381
53.0774 83.9407 79.4913 -174.48 5.956 -178.186 5.02324 3.07518 8.1453 -0.844424 -1.19706 2.34196 -10.8122 -2.62854 -1.96156 3.08383 3.06484 -1.9056 -0.0 0.0 0.0 -0.0 0.0 0.0 9.05274e-14 7.21572e-14 -2.60945e-13 74.3533 15.9202 10.0874 -18.1511 -10.7106 34.5676 -0.820839 -24.576 -3.69029 -4.15398e-10 -7.72062e-11 -6.28521e-10 -7.05821e-10 -1.68739e-10 -1.09556e-09 -4.15399e-10 -7.71613e-11 -6.28544e-10 7.73091 5.47488 0.417314 -4.15399e-10 -7.71612e-11 -6.28522e-10 2.90554 0.965183 0.102902 -4.15398e-10 -7.71613e-11 -6.28519e-10 10.2786 0.731801 0.0259123 -4.15403e-10 -7.72044e-11 -6.28508e-10 2.22167 -0.733487 -0.20892 9.04817e-14 7.21547e-14 -2.61112e-13 -83.9349 16.3351 4.88221 13.7307 -6.6664 -25.1 0.131424 10.1655 -1.44437 4.42093e-10 2.02786e-09 -1.89504e-10 7.64728e-10 3.50749e-09 -3.32216e-10 4.42089e-10 2.02787e-09 -1.89491e-10 -7.73091 5.47488 -0.417314 4.42097e-10 2.02786e-09 -1.89512e-10 -2.90554 0.965183 -0.102902 4.42089e-10 2.02786e-09 -1.89504e-10 -10.2786 0.731801 -0.0259123 4.42101e-10 2.02786e-09 -1.89511e-10 -2.22167 -0.733487 0.20892 -2.03217e-16 0.0 -3.88251e-19 2.89845 -2.9937 -2.77923 -0.452778 45.958 1.01511 -0.947192 11.2843 3.55325 2.03217e-16 0.0 3.88251e-19 5.75271 -30.1709 1.65779 0.200474 29.5716 -0.279387 0.470461 3.56077 0.139236
52.8654 83.9143 78.6735 -175.108 5.928 -178.531 4.67685 3.32916 7.908 -0.952787 -1.26892 2.26761 -10.5524 -2.44676 -1.89303 3.07612 3.20258 -1.88831 -0.0 0.0 0.0 -0.0 0.0 0.0 1.1192e-13 6.95758e-14 -1.9784e-13 72.8617 15.7072 9.95084 -18.0474 -10.7378 34.1266 -0.78618 -24.3378 -3.64464 -7.81151e-10 6.89228e-10 -3.8353e-10 -1.34127e-09 1.15916e-09 -6.78222e-10 -7.81151e-10 6.89279e-10 -3.83553e-10 7.73091 5.47488 0.417314 -7.81152e-10 6.8928e-10 -3.8353e-10 2.90554 0.965183 0.102902 -7.81153e-10 6.8928e-10 -3.83526e-10 10.2786 0.731801 0.0259123 -7.81156e-10 6.89231e-10 -3.83514e-10 2.22167 -0.733487 -0.20892 1.1187e-13 6.95731e-14 -1.98039e-13 -81.7478 15.9303 4.68797 13.4885 -6.54902 -24.5305 0.121554 9.89269 -1.40445 9.78633e-11 1.47337e-09 -1.99488e-10 1.70273e-10 2.54899e-09 -3.45876e-10 9.78585e-11 1.47338e-09 -1.99475e-10 -7.73091 5.47488 -0.417314 9.78677e-11 1.47337e-09 -1.99497e-10 -2.90554 0.965183 -0.102902 9.78588e-11 1.47338e-09 -1.99488e-10 -10.2786 0.731801 -0.0259123 9.78708e-11 1.47338e-09 -1.99494e-10 -2.22167 -0.733487 0.20892 -2.03217e-16 0.0 -3.88251e-19 2.21569 -4.49248 -3.09165 -0.503138 47.8034 1.03717 -1.05391 14.2426 3.2384 2.03217e-16 0.0 3.88251e-19 5.13174 -28.7872 1.47912 0.194766 29.1711 -0.256927 0.467448 2.98913 0.143129
